<mxfile host="app.diagrams.net" modified="2021-03-18T16:12:46.346Z" agent="5.0 (Windows NT 10.0; Win64; x64) AppleWebKit/537.36 (KHTML, like Gecko) Chrome/89.0.4389.90 Safari/537.36" etag="UpFloMdE2z67OjbhRvXq" version="14.4.9" type="github">
  <diagram id="R2lEEEUBdFMjLlhIrx00" name="Page-1">
    <mxGraphModel dx="2031" dy="3134" grid="1" gridSize="10" guides="0" tooltips="1" connect="1" arrows="1" fold="1" page="1" pageScale="1" pageWidth="2000" pageHeight="2000" math="0" shadow="0" extFonts="Permanent Marker^https://fonts.googleapis.com/css?family=Permanent+Marker">
      <root>
        <mxCell id="0" />
        <mxCell id="1" parent="0" />
        <mxCell id="V_wv7amkp1t62BWTInBq-62" value="교육장" style="shape=table;startSize=30;container=1;collapsible=1;childLayout=tableLayout;fixedRows=1;rowLines=0;fontStyle=1;align=center;resizeLast=1;" vertex="1" parent="1">
          <mxGeometry x="360" y="280" width="180" height="270" as="geometry">
            <mxRectangle x="700" y="30" width="70" height="30" as="alternateBounds" />
          </mxGeometry>
        </mxCell>
        <mxCell id="V_wv7amkp1t62BWTInBq-63" value="" style="shape=partialRectangle;collapsible=0;dropTarget=0;pointerEvents=0;fillColor=none;top=0;left=0;bottom=1;right=0;points=[[0,0.5],[1,0.5]];portConstraint=eastwest;" vertex="1" parent="V_wv7amkp1t62BWTInBq-62">
          <mxGeometry y="30" width="180" height="30" as="geometry" />
        </mxCell>
        <mxCell id="V_wv7amkp1t62BWTInBq-64" value="PK" style="shape=partialRectangle;connectable=0;fillColor=none;top=0;left=0;bottom=0;right=0;fontStyle=1;overflow=hidden;" vertex="1" parent="V_wv7amkp1t62BWTInBq-63">
          <mxGeometry width="30" height="30" as="geometry" />
        </mxCell>
        <mxCell id="V_wv7amkp1t62BWTInBq-65" value="교육장 번호" style="shape=partialRectangle;connectable=0;fillColor=none;top=0;left=0;bottom=0;right=0;align=left;spacingLeft=6;fontStyle=5;overflow=hidden;" vertex="1" parent="V_wv7amkp1t62BWTInBq-63">
          <mxGeometry x="30" width="150" height="30" as="geometry" />
        </mxCell>
        <mxCell id="V_wv7amkp1t62BWTInBq-66" value="" style="shape=partialRectangle;collapsible=0;dropTarget=0;pointerEvents=0;fillColor=none;top=0;left=0;bottom=0;right=0;points=[[0,0.5],[1,0.5]];portConstraint=eastwest;" vertex="1" parent="V_wv7amkp1t62BWTInBq-62">
          <mxGeometry y="60" width="180" height="30" as="geometry" />
        </mxCell>
        <mxCell id="V_wv7amkp1t62BWTInBq-67" value="" style="shape=partialRectangle;connectable=0;fillColor=none;top=0;left=0;bottom=0;right=0;editable=1;overflow=hidden;" vertex="1" parent="V_wv7amkp1t62BWTInBq-66">
          <mxGeometry width="30" height="30" as="geometry" />
        </mxCell>
        <mxCell id="V_wv7amkp1t62BWTInBq-68" value="교육장 이름" style="shape=partialRectangle;connectable=0;fillColor=none;top=0;left=0;bottom=0;right=0;align=left;spacingLeft=6;overflow=hidden;" vertex="1" parent="V_wv7amkp1t62BWTInBq-66">
          <mxGeometry x="30" width="150" height="30" as="geometry" />
        </mxCell>
        <mxCell id="V_wv7amkp1t62BWTInBq-69" value="" style="shape=partialRectangle;collapsible=0;dropTarget=0;pointerEvents=0;fillColor=none;top=0;left=0;bottom=0;right=0;points=[[0,0.5],[1,0.5]];portConstraint=eastwest;" vertex="1" parent="V_wv7amkp1t62BWTInBq-62">
          <mxGeometry y="90" width="180" height="30" as="geometry" />
        </mxCell>
        <mxCell id="V_wv7amkp1t62BWTInBq-70" value="" style="shape=partialRectangle;connectable=0;fillColor=none;top=0;left=0;bottom=0;right=0;editable=1;overflow=hidden;" vertex="1" parent="V_wv7amkp1t62BWTInBq-69">
          <mxGeometry width="30" height="30" as="geometry" />
        </mxCell>
        <mxCell id="V_wv7amkp1t62BWTInBq-71" value="교육장 주소" style="shape=partialRectangle;connectable=0;fillColor=none;top=0;left=0;bottom=0;right=0;align=left;spacingLeft=6;overflow=hidden;" vertex="1" parent="V_wv7amkp1t62BWTInBq-69">
          <mxGeometry x="30" width="150" height="30" as="geometry" />
        </mxCell>
        <mxCell id="V_wv7amkp1t62BWTInBq-72" value="" style="shape=partialRectangle;collapsible=0;dropTarget=0;pointerEvents=0;fillColor=none;top=0;left=0;bottom=0;right=0;points=[[0,0.5],[1,0.5]];portConstraint=eastwest;" vertex="1" parent="V_wv7amkp1t62BWTInBq-62">
          <mxGeometry y="120" width="180" height="30" as="geometry" />
        </mxCell>
        <mxCell id="V_wv7amkp1t62BWTInBq-73" value="" style="shape=partialRectangle;connectable=0;fillColor=none;top=0;left=0;bottom=0;right=0;editable=1;overflow=hidden;" vertex="1" parent="V_wv7amkp1t62BWTInBq-72">
          <mxGeometry width="30" height="30" as="geometry" />
        </mxCell>
        <mxCell id="V_wv7amkp1t62BWTInBq-74" value="교육장 전화번호" style="shape=partialRectangle;connectable=0;fillColor=none;top=0;left=0;bottom=0;right=0;align=left;spacingLeft=6;overflow=hidden;" vertex="1" parent="V_wv7amkp1t62BWTInBq-72">
          <mxGeometry x="30" width="150" height="30" as="geometry" />
        </mxCell>
        <mxCell id="V_wv7amkp1t62BWTInBq-105" style="shape=partialRectangle;collapsible=0;dropTarget=0;pointerEvents=0;fillColor=none;top=0;left=0;bottom=0;right=0;points=[[0,0.5],[1,0.5]];portConstraint=eastwest;" vertex="1" parent="V_wv7amkp1t62BWTInBq-62">
          <mxGeometry y="150" width="180" height="30" as="geometry" />
        </mxCell>
        <mxCell id="V_wv7amkp1t62BWTInBq-106" style="shape=partialRectangle;connectable=0;fillColor=none;top=0;left=0;bottom=0;right=0;editable=1;overflow=hidden;" vertex="1" parent="V_wv7amkp1t62BWTInBq-105">
          <mxGeometry width="30" height="30" as="geometry" />
        </mxCell>
        <mxCell id="V_wv7amkp1t62BWTInBq-107" value="교육장 설립 목적" style="shape=partialRectangle;connectable=0;fillColor=none;top=0;left=0;bottom=0;right=0;align=left;spacingLeft=6;overflow=hidden;" vertex="1" parent="V_wv7amkp1t62BWTInBq-105">
          <mxGeometry x="30" width="150" height="30" as="geometry" />
        </mxCell>
        <mxCell id="V_wv7amkp1t62BWTInBq-114" style="shape=partialRectangle;collapsible=0;dropTarget=0;pointerEvents=0;fillColor=none;top=0;left=0;bottom=0;right=0;points=[[0,0.5],[1,0.5]];portConstraint=eastwest;" vertex="1" parent="V_wv7amkp1t62BWTInBq-62">
          <mxGeometry y="180" width="180" height="30" as="geometry" />
        </mxCell>
        <mxCell id="V_wv7amkp1t62BWTInBq-115" style="shape=partialRectangle;connectable=0;fillColor=none;top=0;left=0;bottom=0;right=0;editable=1;overflow=hidden;" vertex="1" parent="V_wv7amkp1t62BWTInBq-114">
          <mxGeometry width="30" height="30" as="geometry" />
        </mxCell>
        <mxCell id="V_wv7amkp1t62BWTInBq-116" value="공교육 여부" style="shape=partialRectangle;connectable=0;fillColor=none;top=0;left=0;bottom=0;right=0;align=left;spacingLeft=6;overflow=hidden;" vertex="1" parent="V_wv7amkp1t62BWTInBq-114">
          <mxGeometry x="30" width="150" height="30" as="geometry" />
        </mxCell>
        <mxCell id="V_wv7amkp1t62BWTInBq-111" style="shape=partialRectangle;collapsible=0;dropTarget=0;pointerEvents=0;fillColor=none;top=0;left=0;bottom=0;right=0;points=[[0,0.5],[1,0.5]];portConstraint=eastwest;" vertex="1" parent="V_wv7amkp1t62BWTInBq-62">
          <mxGeometry y="210" width="180" height="30" as="geometry" />
        </mxCell>
        <mxCell id="V_wv7amkp1t62BWTInBq-112" style="shape=partialRectangle;connectable=0;fillColor=none;top=0;left=0;bottom=0;right=0;editable=1;overflow=hidden;" vertex="1" parent="V_wv7amkp1t62BWTInBq-111">
          <mxGeometry width="30" height="30" as="geometry" />
        </mxCell>
        <mxCell id="V_wv7amkp1t62BWTInBq-113" value="비용 결제 주기" style="shape=partialRectangle;connectable=0;fillColor=none;top=0;left=0;bottom=0;right=0;align=left;spacingLeft=6;overflow=hidden;" vertex="1" parent="V_wv7amkp1t62BWTInBq-111">
          <mxGeometry x="30" width="150" height="30" as="geometry" />
        </mxCell>
        <mxCell id="V_wv7amkp1t62BWTInBq-108" style="shape=partialRectangle;collapsible=0;dropTarget=0;pointerEvents=0;fillColor=none;top=0;left=0;bottom=0;right=0;points=[[0,0.5],[1,0.5]];portConstraint=eastwest;" vertex="1" parent="V_wv7amkp1t62BWTInBq-62">
          <mxGeometry y="240" width="180" height="30" as="geometry" />
        </mxCell>
        <mxCell id="V_wv7amkp1t62BWTInBq-109" style="shape=partialRectangle;connectable=0;fillColor=none;top=0;left=0;bottom=0;right=0;editable=1;overflow=hidden;" vertex="1" parent="V_wv7amkp1t62BWTInBq-108">
          <mxGeometry width="30" height="30" as="geometry" />
        </mxCell>
        <mxCell id="V_wv7amkp1t62BWTInBq-110" value="비용" style="shape=partialRectangle;connectable=0;fillColor=none;top=0;left=0;bottom=0;right=0;align=left;spacingLeft=6;overflow=hidden;" vertex="1" parent="V_wv7amkp1t62BWTInBq-108">
          <mxGeometry x="30" width="150" height="30" as="geometry" />
        </mxCell>
        <mxCell id="V_wv7amkp1t62BWTInBq-76" value="학생" style="shape=table;startSize=30;container=1;collapsible=1;childLayout=tableLayout;fixedRows=1;rowLines=0;fontStyle=1;align=center;resizeLast=1;" vertex="1" parent="1">
          <mxGeometry x="1150" y="130" width="180" height="250" as="geometry" />
        </mxCell>
        <mxCell id="V_wv7amkp1t62BWTInBq-77" value="" style="shape=partialRectangle;collapsible=0;dropTarget=0;pointerEvents=0;fillColor=none;top=0;left=0;bottom=1;right=0;points=[[0,0.5],[1,0.5]];portConstraint=eastwest;" vertex="1" parent="V_wv7amkp1t62BWTInBq-76">
          <mxGeometry y="30" width="180" height="30" as="geometry" />
        </mxCell>
        <mxCell id="V_wv7amkp1t62BWTInBq-78" value="PK" style="shape=partialRectangle;connectable=0;fillColor=none;top=0;left=0;bottom=0;right=0;fontStyle=1;overflow=hidden;" vertex="1" parent="V_wv7amkp1t62BWTInBq-77">
          <mxGeometry width="30" height="30" as="geometry" />
        </mxCell>
        <mxCell id="V_wv7amkp1t62BWTInBq-79" value="학생번호" style="shape=partialRectangle;connectable=0;fillColor=none;top=0;left=0;bottom=0;right=0;align=left;spacingLeft=6;fontStyle=5;overflow=hidden;" vertex="1" parent="V_wv7amkp1t62BWTInBq-77">
          <mxGeometry x="30" width="150" height="30" as="geometry" />
        </mxCell>
        <mxCell id="V_wv7amkp1t62BWTInBq-136" style="shape=partialRectangle;collapsible=0;dropTarget=0;pointerEvents=0;fillColor=none;top=0;left=0;bottom=0;right=0;points=[[0,0.5],[1,0.5]];portConstraint=eastwest;" vertex="1" parent="V_wv7amkp1t62BWTInBq-76">
          <mxGeometry y="60" width="180" height="30" as="geometry" />
        </mxCell>
        <mxCell id="V_wv7amkp1t62BWTInBq-137" style="shape=partialRectangle;connectable=0;fillColor=none;top=0;left=0;bottom=0;right=0;editable=1;overflow=hidden;" vertex="1" parent="V_wv7amkp1t62BWTInBq-136">
          <mxGeometry width="30" height="30" as="geometry" />
        </mxCell>
        <mxCell id="V_wv7amkp1t62BWTInBq-138" value="주민등록번호" style="shape=partialRectangle;connectable=0;fillColor=none;top=0;left=0;bottom=0;right=0;align=left;spacingLeft=6;overflow=hidden;" vertex="1" parent="V_wv7amkp1t62BWTInBq-136">
          <mxGeometry x="30" width="150" height="30" as="geometry" />
        </mxCell>
        <mxCell id="V_wv7amkp1t62BWTInBq-80" value="" style="shape=partialRectangle;collapsible=0;dropTarget=0;pointerEvents=0;fillColor=none;top=0;left=0;bottom=0;right=0;points=[[0,0.5],[1,0.5]];portConstraint=eastwest;" vertex="1" parent="V_wv7amkp1t62BWTInBq-76">
          <mxGeometry y="90" width="180" height="30" as="geometry" />
        </mxCell>
        <mxCell id="V_wv7amkp1t62BWTInBq-81" value="" style="shape=partialRectangle;connectable=0;fillColor=none;top=0;left=0;bottom=0;right=0;editable=1;overflow=hidden;" vertex="1" parent="V_wv7amkp1t62BWTInBq-80">
          <mxGeometry width="30" height="30" as="geometry" />
        </mxCell>
        <mxCell id="V_wv7amkp1t62BWTInBq-82" value="이름" style="shape=partialRectangle;connectable=0;fillColor=none;top=0;left=0;bottom=0;right=0;align=left;spacingLeft=6;overflow=hidden;" vertex="1" parent="V_wv7amkp1t62BWTInBq-80">
          <mxGeometry x="30" width="150" height="30" as="geometry" />
        </mxCell>
        <mxCell id="V_wv7amkp1t62BWTInBq-83" value="" style="shape=partialRectangle;collapsible=0;dropTarget=0;pointerEvents=0;fillColor=none;top=0;left=0;bottom=0;right=0;points=[[0,0.5],[1,0.5]];portConstraint=eastwest;" vertex="1" parent="V_wv7amkp1t62BWTInBq-76">
          <mxGeometry y="120" width="180" height="30" as="geometry" />
        </mxCell>
        <mxCell id="V_wv7amkp1t62BWTInBq-84" value="" style="shape=partialRectangle;connectable=0;fillColor=none;top=0;left=0;bottom=0;right=0;editable=1;overflow=hidden;" vertex="1" parent="V_wv7amkp1t62BWTInBq-83">
          <mxGeometry width="30" height="30" as="geometry" />
        </mxCell>
        <mxCell id="V_wv7amkp1t62BWTInBq-85" value="전화번호" style="shape=partialRectangle;connectable=0;fillColor=none;top=0;left=0;bottom=0;right=0;align=left;spacingLeft=6;overflow=hidden;" vertex="1" parent="V_wv7amkp1t62BWTInBq-83">
          <mxGeometry x="30" width="150" height="30" as="geometry" />
        </mxCell>
        <mxCell id="V_wv7amkp1t62BWTInBq-86" value="" style="shape=partialRectangle;collapsible=0;dropTarget=0;pointerEvents=0;fillColor=none;top=0;left=0;bottom=0;right=0;points=[[0,0.5],[1,0.5]];portConstraint=eastwest;" vertex="1" parent="V_wv7amkp1t62BWTInBq-76">
          <mxGeometry y="150" width="180" height="30" as="geometry" />
        </mxCell>
        <mxCell id="V_wv7amkp1t62BWTInBq-87" value="" style="shape=partialRectangle;connectable=0;fillColor=none;top=0;left=0;bottom=0;right=0;editable=1;overflow=hidden;" vertex="1" parent="V_wv7amkp1t62BWTInBq-86">
          <mxGeometry width="30" height="30" as="geometry" />
        </mxCell>
        <mxCell id="V_wv7amkp1t62BWTInBq-88" value="거주 주소" style="shape=partialRectangle;connectable=0;fillColor=none;top=0;left=0;bottom=0;right=0;align=left;spacingLeft=6;overflow=hidden;" vertex="1" parent="V_wv7amkp1t62BWTInBq-86">
          <mxGeometry x="30" width="150" height="30" as="geometry" />
        </mxCell>
        <mxCell id="V_wv7amkp1t62BWTInBq-120" style="shape=partialRectangle;collapsible=0;dropTarget=0;pointerEvents=0;fillColor=none;top=0;left=0;bottom=0;right=0;points=[[0,0.5],[1,0.5]];portConstraint=eastwest;" vertex="1" parent="V_wv7amkp1t62BWTInBq-76">
          <mxGeometry y="180" width="180" height="30" as="geometry" />
        </mxCell>
        <mxCell id="V_wv7amkp1t62BWTInBq-121" style="shape=partialRectangle;connectable=0;fillColor=none;top=0;left=0;bottom=0;right=0;editable=1;overflow=hidden;" vertex="1" parent="V_wv7amkp1t62BWTInBq-120">
          <mxGeometry width="30" height="30" as="geometry" />
        </mxCell>
        <mxCell id="V_wv7amkp1t62BWTInBq-122" value="휴학상태" style="shape=partialRectangle;connectable=0;fillColor=none;top=0;left=0;bottom=0;right=0;align=left;spacingLeft=6;overflow=hidden;" vertex="1" parent="V_wv7amkp1t62BWTInBq-120">
          <mxGeometry x="30" width="150" height="30" as="geometry" />
        </mxCell>
        <mxCell id="V_wv7amkp1t62BWTInBq-117" style="shape=partialRectangle;collapsible=0;dropTarget=0;pointerEvents=0;fillColor=none;top=0;left=0;bottom=0;right=0;points=[[0,0.5],[1,0.5]];portConstraint=eastwest;" vertex="1" parent="V_wv7amkp1t62BWTInBq-76">
          <mxGeometry y="210" width="180" height="30" as="geometry" />
        </mxCell>
        <mxCell id="V_wv7amkp1t62BWTInBq-118" style="shape=partialRectangle;connectable=0;fillColor=none;top=0;left=0;bottom=0;right=0;editable=1;overflow=hidden;" vertex="1" parent="V_wv7amkp1t62BWTInBq-117">
          <mxGeometry width="30" height="30" as="geometry" />
        </mxCell>
        <mxCell id="V_wv7amkp1t62BWTInBq-119" value="학번" style="shape=partialRectangle;connectable=0;fillColor=none;top=0;left=0;bottom=0;right=0;align=left;spacingLeft=6;overflow=hidden;" vertex="1" parent="V_wv7amkp1t62BWTInBq-117">
          <mxGeometry x="30" width="150" height="30" as="geometry" />
        </mxCell>
        <mxCell id="V_wv7amkp1t62BWTInBq-123" value="수강" style="shape=table;startSize=30;container=1;collapsible=1;childLayout=tableLayout;fixedRows=1;rowLines=0;fontStyle=1;align=center;resizeLast=1;" vertex="1" parent="1">
          <mxGeometry x="900" y="450" width="180" height="280" as="geometry" />
        </mxCell>
        <mxCell id="V_wv7amkp1t62BWTInBq-124" value="" style="shape=partialRectangle;collapsible=0;dropTarget=0;pointerEvents=0;fillColor=none;top=0;left=0;bottom=1;right=0;points=[[0,0.5],[1,0.5]];portConstraint=eastwest;" vertex="1" parent="V_wv7amkp1t62BWTInBq-123">
          <mxGeometry y="30" width="180" height="30" as="geometry" />
        </mxCell>
        <mxCell id="V_wv7amkp1t62BWTInBq-125" value="PK" style="shape=partialRectangle;connectable=0;fillColor=none;top=0;left=0;bottom=0;right=0;fontStyle=1;overflow=hidden;" vertex="1" parent="V_wv7amkp1t62BWTInBq-124">
          <mxGeometry width="30" height="30" as="geometry" />
        </mxCell>
        <mxCell id="V_wv7amkp1t62BWTInBq-126" value="수강번호" style="shape=partialRectangle;connectable=0;fillColor=none;top=0;left=0;bottom=0;right=0;align=left;spacingLeft=6;fontStyle=5;overflow=hidden;" vertex="1" parent="V_wv7amkp1t62BWTInBq-124">
          <mxGeometry x="30" width="150" height="30" as="geometry" />
        </mxCell>
        <mxCell id="V_wv7amkp1t62BWTInBq-127" value="" style="shape=partialRectangle;collapsible=0;dropTarget=0;pointerEvents=0;fillColor=none;top=0;left=0;bottom=0;right=0;points=[[0,0.5],[1,0.5]];portConstraint=eastwest;" vertex="1" parent="V_wv7amkp1t62BWTInBq-123">
          <mxGeometry y="60" width="180" height="30" as="geometry" />
        </mxCell>
        <mxCell id="V_wv7amkp1t62BWTInBq-128" value="" style="shape=partialRectangle;connectable=0;fillColor=none;top=0;left=0;bottom=0;right=0;editable=1;overflow=hidden;" vertex="1" parent="V_wv7amkp1t62BWTInBq-127">
          <mxGeometry width="30" height="30" as="geometry" />
        </mxCell>
        <mxCell id="V_wv7amkp1t62BWTInBq-129" value="학생번호(FK)" style="shape=partialRectangle;connectable=0;fillColor=none;top=0;left=0;bottom=0;right=0;align=left;spacingLeft=6;overflow=hidden;" vertex="1" parent="V_wv7amkp1t62BWTInBq-127">
          <mxGeometry x="30" width="150" height="30" as="geometry" />
        </mxCell>
        <mxCell id="V_wv7amkp1t62BWTInBq-130" value="" style="shape=partialRectangle;collapsible=0;dropTarget=0;pointerEvents=0;fillColor=none;top=0;left=0;bottom=0;right=0;points=[[0,0.5],[1,0.5]];portConstraint=eastwest;" vertex="1" parent="V_wv7amkp1t62BWTInBq-123">
          <mxGeometry y="90" width="180" height="30" as="geometry" />
        </mxCell>
        <mxCell id="V_wv7amkp1t62BWTInBq-131" value="" style="shape=partialRectangle;connectable=0;fillColor=none;top=0;left=0;bottom=0;right=0;editable=1;overflow=hidden;" vertex="1" parent="V_wv7amkp1t62BWTInBq-130">
          <mxGeometry width="30" height="30" as="geometry" />
        </mxCell>
        <mxCell id="V_wv7amkp1t62BWTInBq-132" value="교육장 번호(FK)" style="shape=partialRectangle;connectable=0;fillColor=none;top=0;left=0;bottom=0;right=0;align=left;spacingLeft=6;overflow=hidden;" vertex="1" parent="V_wv7amkp1t62BWTInBq-130">
          <mxGeometry x="30" width="150" height="30" as="geometry" />
        </mxCell>
        <mxCell id="V_wv7amkp1t62BWTInBq-254" style="shape=partialRectangle;collapsible=0;dropTarget=0;pointerEvents=0;fillColor=none;top=0;left=0;bottom=0;right=0;points=[[0,0.5],[1,0.5]];portConstraint=eastwest;" vertex="1" parent="V_wv7amkp1t62BWTInBq-123">
          <mxGeometry y="120" width="180" height="30" as="geometry" />
        </mxCell>
        <mxCell id="V_wv7amkp1t62BWTInBq-255" style="shape=partialRectangle;connectable=0;fillColor=none;top=0;left=0;bottom=0;right=0;editable=1;overflow=hidden;" vertex="1" parent="V_wv7amkp1t62BWTInBq-254">
          <mxGeometry width="30" height="30" as="geometry" />
        </mxCell>
        <mxCell id="V_wv7amkp1t62BWTInBq-256" value="교사번호(FK)" style="shape=partialRectangle;connectable=0;fillColor=none;top=0;left=0;bottom=0;right=0;align=left;spacingLeft=6;overflow=hidden;" vertex="1" parent="V_wv7amkp1t62BWTInBq-254">
          <mxGeometry x="30" width="150" height="30" as="geometry" />
        </mxCell>
        <mxCell id="V_wv7amkp1t62BWTInBq-133" value="" style="shape=partialRectangle;collapsible=0;dropTarget=0;pointerEvents=0;fillColor=none;top=0;left=0;bottom=0;right=0;points=[[0,0.5],[1,0.5]];portConstraint=eastwest;" vertex="1" parent="V_wv7amkp1t62BWTInBq-123">
          <mxGeometry y="150" width="180" height="30" as="geometry" />
        </mxCell>
        <mxCell id="V_wv7amkp1t62BWTInBq-134" value="" style="shape=partialRectangle;connectable=0;fillColor=none;top=0;left=0;bottom=0;right=0;editable=1;overflow=hidden;" vertex="1" parent="V_wv7amkp1t62BWTInBq-133">
          <mxGeometry width="30" height="30" as="geometry" />
        </mxCell>
        <mxCell id="V_wv7amkp1t62BWTInBq-135" value="강의번호(FK)" style="shape=partialRectangle;connectable=0;fillColor=none;top=0;left=0;bottom=0;right=0;align=left;spacingLeft=6;overflow=hidden;" vertex="1" parent="V_wv7amkp1t62BWTInBq-133">
          <mxGeometry x="30" width="150" height="30" as="geometry" />
        </mxCell>
        <mxCell id="V_wv7amkp1t62BWTInBq-234" style="shape=partialRectangle;collapsible=0;dropTarget=0;pointerEvents=0;fillColor=none;top=0;left=0;bottom=0;right=0;points=[[0,0.5],[1,0.5]];portConstraint=eastwest;" vertex="1" parent="V_wv7amkp1t62BWTInBq-123">
          <mxGeometry y="180" width="180" height="30" as="geometry" />
        </mxCell>
        <mxCell id="V_wv7amkp1t62BWTInBq-235" style="shape=partialRectangle;connectable=0;fillColor=none;top=0;left=0;bottom=0;right=0;editable=1;overflow=hidden;" vertex="1" parent="V_wv7amkp1t62BWTInBq-234">
          <mxGeometry width="30" height="30" as="geometry" />
        </mxCell>
        <mxCell id="V_wv7amkp1t62BWTInBq-236" value="수강횟수" style="shape=partialRectangle;connectable=0;fillColor=none;top=0;left=0;bottom=0;right=0;align=left;spacingLeft=6;overflow=hidden;" vertex="1" parent="V_wv7amkp1t62BWTInBq-234">
          <mxGeometry x="30" width="150" height="30" as="geometry" />
        </mxCell>
        <mxCell id="V_wv7amkp1t62BWTInBq-246" style="shape=partialRectangle;collapsible=0;dropTarget=0;pointerEvents=0;fillColor=none;top=0;left=0;bottom=0;right=0;points=[[0,0.5],[1,0.5]];portConstraint=eastwest;" vertex="1" parent="V_wv7amkp1t62BWTInBq-123">
          <mxGeometry y="210" width="180" height="30" as="geometry" />
        </mxCell>
        <mxCell id="V_wv7amkp1t62BWTInBq-247" style="shape=partialRectangle;connectable=0;fillColor=none;top=0;left=0;bottom=0;right=0;editable=1;overflow=hidden;" vertex="1" parent="V_wv7amkp1t62BWTInBq-246">
          <mxGeometry width="30" height="30" as="geometry" />
        </mxCell>
        <mxCell id="V_wv7amkp1t62BWTInBq-248" value="수강완료여부" style="shape=partialRectangle;connectable=0;fillColor=none;top=0;left=0;bottom=0;right=0;align=left;spacingLeft=6;overflow=hidden;" vertex="1" parent="V_wv7amkp1t62BWTInBq-246">
          <mxGeometry x="30" width="150" height="30" as="geometry" />
        </mxCell>
        <mxCell id="V_wv7amkp1t62BWTInBq-243" style="shape=partialRectangle;collapsible=0;dropTarget=0;pointerEvents=0;fillColor=none;top=0;left=0;bottom=0;right=0;points=[[0,0.5],[1,0.5]];portConstraint=eastwest;" vertex="1" parent="V_wv7amkp1t62BWTInBq-123">
          <mxGeometry y="240" width="180" height="30" as="geometry" />
        </mxCell>
        <mxCell id="V_wv7amkp1t62BWTInBq-244" style="shape=partialRectangle;connectable=0;fillColor=none;top=0;left=0;bottom=0;right=0;editable=1;overflow=hidden;" vertex="1" parent="V_wv7amkp1t62BWTInBq-243">
          <mxGeometry width="30" height="30" as="geometry" />
        </mxCell>
        <mxCell id="V_wv7amkp1t62BWTInBq-245" value="성적" style="shape=partialRectangle;connectable=0;fillColor=none;top=0;left=0;bottom=0;right=0;align=left;spacingLeft=6;overflow=hidden;" vertex="1" parent="V_wv7amkp1t62BWTInBq-243">
          <mxGeometry x="30" width="150" height="30" as="geometry" />
        </mxCell>
        <mxCell id="V_wv7amkp1t62BWTInBq-139" value="강의" style="shape=table;startSize=30;container=1;collapsible=1;childLayout=tableLayout;fixedRows=1;rowLines=0;fontStyle=1;align=center;resizeLast=1;" vertex="1" parent="1">
          <mxGeometry x="660" y="280" width="180" height="250" as="geometry" />
        </mxCell>
        <mxCell id="V_wv7amkp1t62BWTInBq-172" style="shape=partialRectangle;collapsible=0;dropTarget=0;pointerEvents=0;fillColor=none;top=0;left=0;bottom=1;right=0;points=[[0,0.5],[1,0.5]];portConstraint=eastwest;" vertex="1" parent="V_wv7amkp1t62BWTInBq-139">
          <mxGeometry y="30" width="180" height="30" as="geometry" />
        </mxCell>
        <mxCell id="V_wv7amkp1t62BWTInBq-173" value="PK" style="shape=partialRectangle;connectable=0;fillColor=none;top=0;left=0;bottom=0;right=0;fontStyle=1;overflow=hidden;" vertex="1" parent="V_wv7amkp1t62BWTInBq-172">
          <mxGeometry width="30" height="30" as="geometry" />
        </mxCell>
        <mxCell id="V_wv7amkp1t62BWTInBq-174" value="강의 번호" style="shape=partialRectangle;connectable=0;fillColor=none;top=0;left=0;bottom=0;right=0;align=left;spacingLeft=6;fontStyle=5;overflow=hidden;" vertex="1" parent="V_wv7amkp1t62BWTInBq-172">
          <mxGeometry x="30" width="150" height="30" as="geometry" />
        </mxCell>
        <mxCell id="V_wv7amkp1t62BWTInBq-140" value="" style="shape=partialRectangle;collapsible=0;dropTarget=0;pointerEvents=0;fillColor=none;top=0;left=0;bottom=1;right=0;points=[[0,0.5],[1,0.5]];portConstraint=eastwest;" vertex="1" parent="V_wv7amkp1t62BWTInBq-139">
          <mxGeometry y="60" width="180" height="30" as="geometry" />
        </mxCell>
        <mxCell id="V_wv7amkp1t62BWTInBq-141" value="PK" style="shape=partialRectangle;connectable=0;fillColor=none;top=0;left=0;bottom=0;right=0;fontStyle=1;overflow=hidden;" vertex="1" parent="V_wv7amkp1t62BWTInBq-140">
          <mxGeometry width="30" height="30" as="geometry" />
        </mxCell>
        <mxCell id="V_wv7amkp1t62BWTInBq-142" value="교육장 번호(FK)" style="shape=partialRectangle;connectable=0;fillColor=none;top=0;left=0;bottom=0;right=0;align=left;spacingLeft=6;fontStyle=5;overflow=hidden;" vertex="1" parent="V_wv7amkp1t62BWTInBq-140">
          <mxGeometry x="30" width="150" height="30" as="geometry" />
        </mxCell>
        <mxCell id="V_wv7amkp1t62BWTInBq-237" style="shape=partialRectangle;collapsible=0;dropTarget=0;pointerEvents=0;fillColor=none;top=0;left=0;bottom=0;right=0;points=[[0,0.5],[1,0.5]];portConstraint=eastwest;" vertex="1" parent="V_wv7amkp1t62BWTInBq-139">
          <mxGeometry y="90" width="180" height="30" as="geometry" />
        </mxCell>
        <mxCell id="V_wv7amkp1t62BWTInBq-238" style="shape=partialRectangle;connectable=0;fillColor=none;top=0;left=0;bottom=0;right=0;editable=1;overflow=hidden;" vertex="1" parent="V_wv7amkp1t62BWTInBq-237">
          <mxGeometry width="30" height="30" as="geometry" />
        </mxCell>
        <mxCell id="V_wv7amkp1t62BWTInBq-239" value="강의제목" style="shape=partialRectangle;connectable=0;fillColor=none;top=0;left=0;bottom=0;right=0;align=left;spacingLeft=6;overflow=hidden;" vertex="1" parent="V_wv7amkp1t62BWTInBq-237">
          <mxGeometry x="30" width="150" height="30" as="geometry" />
        </mxCell>
        <mxCell id="V_wv7amkp1t62BWTInBq-143" value="" style="shape=partialRectangle;collapsible=0;dropTarget=0;pointerEvents=0;fillColor=none;top=0;left=0;bottom=0;right=0;points=[[0,0.5],[1,0.5]];portConstraint=eastwest;" vertex="1" parent="V_wv7amkp1t62BWTInBq-139">
          <mxGeometry y="120" width="180" height="30" as="geometry" />
        </mxCell>
        <mxCell id="V_wv7amkp1t62BWTInBq-144" value="" style="shape=partialRectangle;connectable=0;fillColor=none;top=0;left=0;bottom=0;right=0;editable=1;overflow=hidden;" vertex="1" parent="V_wv7amkp1t62BWTInBq-143">
          <mxGeometry width="30" height="30" as="geometry" />
        </mxCell>
        <mxCell id="V_wv7amkp1t62BWTInBq-145" value="강의내용" style="shape=partialRectangle;connectable=0;fillColor=none;top=0;left=0;bottom=0;right=0;align=left;spacingLeft=6;overflow=hidden;" vertex="1" parent="V_wv7amkp1t62BWTInBq-143">
          <mxGeometry x="30" width="150" height="30" as="geometry" />
        </mxCell>
        <mxCell id="V_wv7amkp1t62BWTInBq-146" value="" style="shape=partialRectangle;collapsible=0;dropTarget=0;pointerEvents=0;fillColor=none;top=0;left=0;bottom=0;right=0;points=[[0,0.5],[1,0.5]];portConstraint=eastwest;" vertex="1" parent="V_wv7amkp1t62BWTInBq-139">
          <mxGeometry y="150" width="180" height="30" as="geometry" />
        </mxCell>
        <mxCell id="V_wv7amkp1t62BWTInBq-147" value="" style="shape=partialRectangle;connectable=0;fillColor=none;top=0;left=0;bottom=0;right=0;editable=1;overflow=hidden;" vertex="1" parent="V_wv7amkp1t62BWTInBq-146">
          <mxGeometry width="30" height="30" as="geometry" />
        </mxCell>
        <mxCell id="V_wv7amkp1t62BWTInBq-148" value="수강인원" style="shape=partialRectangle;connectable=0;fillColor=none;top=0;left=0;bottom=0;right=0;align=left;spacingLeft=6;overflow=hidden;" vertex="1" parent="V_wv7amkp1t62BWTInBq-146">
          <mxGeometry x="30" width="150" height="30" as="geometry" />
        </mxCell>
        <mxCell id="V_wv7amkp1t62BWTInBq-149" value="" style="shape=partialRectangle;collapsible=0;dropTarget=0;pointerEvents=0;fillColor=none;top=0;left=0;bottom=0;right=0;points=[[0,0.5],[1,0.5]];portConstraint=eastwest;" vertex="1" parent="V_wv7amkp1t62BWTInBq-139">
          <mxGeometry y="180" width="180" height="30" as="geometry" />
        </mxCell>
        <mxCell id="V_wv7amkp1t62BWTInBq-150" value="" style="shape=partialRectangle;connectable=0;fillColor=none;top=0;left=0;bottom=0;right=0;editable=1;overflow=hidden;" vertex="1" parent="V_wv7amkp1t62BWTInBq-149">
          <mxGeometry width="30" height="30" as="geometry" />
        </mxCell>
        <mxCell id="V_wv7amkp1t62BWTInBq-151" value="강의기간" style="shape=partialRectangle;connectable=0;fillColor=none;top=0;left=0;bottom=0;right=0;align=left;spacingLeft=6;overflow=hidden;" vertex="1" parent="V_wv7amkp1t62BWTInBq-149">
          <mxGeometry x="30" width="150" height="30" as="geometry" />
        </mxCell>
        <mxCell id="V_wv7amkp1t62BWTInBq-178" style="shape=partialRectangle;collapsible=0;dropTarget=0;pointerEvents=0;fillColor=none;top=0;left=0;bottom=0;right=0;points=[[0,0.5],[1,0.5]];portConstraint=eastwest;" vertex="1" parent="V_wv7amkp1t62BWTInBq-139">
          <mxGeometry y="210" width="180" height="30" as="geometry" />
        </mxCell>
        <mxCell id="V_wv7amkp1t62BWTInBq-179" style="shape=partialRectangle;connectable=0;fillColor=none;top=0;left=0;bottom=0;right=0;editable=1;overflow=hidden;" vertex="1" parent="V_wv7amkp1t62BWTInBq-178">
          <mxGeometry width="30" height="30" as="geometry" />
        </mxCell>
        <mxCell id="V_wv7amkp1t62BWTInBq-180" value="대면강의여부" style="shape=partialRectangle;connectable=0;fillColor=none;top=0;left=0;bottom=0;right=0;align=left;spacingLeft=6;overflow=hidden;" vertex="1" parent="V_wv7amkp1t62BWTInBq-178">
          <mxGeometry x="30" width="150" height="30" as="geometry" />
        </mxCell>
        <mxCell id="V_wv7amkp1t62BWTInBq-181" value="" style="edgeStyle=entityRelationEdgeStyle;fontSize=12;html=1;endArrow=ERzeroToMany;endFill=1;exitX=1;exitY=0.5;exitDx=0;exitDy=0;" edge="1" parent="1" source="V_wv7amkp1t62BWTInBq-63" target="V_wv7amkp1t62BWTInBq-140">
          <mxGeometry width="100" height="100" relative="1" as="geometry">
            <mxPoint x="530" y="270" as="sourcePoint" />
            <mxPoint x="630" y="170" as="targetPoint" />
          </mxGeometry>
        </mxCell>
        <mxCell id="V_wv7amkp1t62BWTInBq-182" value="교사" style="shape=table;startSize=30;container=1;collapsible=1;childLayout=tableLayout;fixedRows=1;rowLines=0;fontStyle=1;align=center;resizeLast=1;" vertex="1" parent="1">
          <mxGeometry x="890" y="790" width="180" height="150" as="geometry" />
        </mxCell>
        <mxCell id="V_wv7amkp1t62BWTInBq-183" value="" style="shape=partialRectangle;collapsible=0;dropTarget=0;pointerEvents=0;fillColor=none;top=0;left=0;bottom=1;right=0;points=[[0,0.5],[1,0.5]];portConstraint=eastwest;" vertex="1" parent="V_wv7amkp1t62BWTInBq-182">
          <mxGeometry y="30" width="180" height="30" as="geometry" />
        </mxCell>
        <mxCell id="V_wv7amkp1t62BWTInBq-184" value="PK" style="shape=partialRectangle;connectable=0;fillColor=none;top=0;left=0;bottom=0;right=0;fontStyle=1;overflow=hidden;" vertex="1" parent="V_wv7amkp1t62BWTInBq-183">
          <mxGeometry width="30" height="30" as="geometry" />
        </mxCell>
        <mxCell id="V_wv7amkp1t62BWTInBq-185" value="교사번호" style="shape=partialRectangle;connectable=0;fillColor=none;top=0;left=0;bottom=0;right=0;align=left;spacingLeft=6;fontStyle=5;overflow=hidden;" vertex="1" parent="V_wv7amkp1t62BWTInBq-183">
          <mxGeometry x="30" width="150" height="30" as="geometry" />
        </mxCell>
        <mxCell id="V_wv7amkp1t62BWTInBq-186" value="" style="shape=partialRectangle;collapsible=0;dropTarget=0;pointerEvents=0;fillColor=none;top=0;left=0;bottom=0;right=0;points=[[0,0.5],[1,0.5]];portConstraint=eastwest;" vertex="1" parent="V_wv7amkp1t62BWTInBq-182">
          <mxGeometry y="60" width="180" height="30" as="geometry" />
        </mxCell>
        <mxCell id="V_wv7amkp1t62BWTInBq-187" value="" style="shape=partialRectangle;connectable=0;fillColor=none;top=0;left=0;bottom=0;right=0;editable=1;overflow=hidden;" vertex="1" parent="V_wv7amkp1t62BWTInBq-186">
          <mxGeometry width="30" height="30" as="geometry" />
        </mxCell>
        <mxCell id="V_wv7amkp1t62BWTInBq-188" value="주민등록번호" style="shape=partialRectangle;connectable=0;fillColor=none;top=0;left=0;bottom=0;right=0;align=left;spacingLeft=6;overflow=hidden;" vertex="1" parent="V_wv7amkp1t62BWTInBq-186">
          <mxGeometry x="30" width="150" height="30" as="geometry" />
        </mxCell>
        <mxCell id="V_wv7amkp1t62BWTInBq-189" value="" style="shape=partialRectangle;collapsible=0;dropTarget=0;pointerEvents=0;fillColor=none;top=0;left=0;bottom=0;right=0;points=[[0,0.5],[1,0.5]];portConstraint=eastwest;" vertex="1" parent="V_wv7amkp1t62BWTInBq-182">
          <mxGeometry y="90" width="180" height="30" as="geometry" />
        </mxCell>
        <mxCell id="V_wv7amkp1t62BWTInBq-190" value="" style="shape=partialRectangle;connectable=0;fillColor=none;top=0;left=0;bottom=0;right=0;editable=1;overflow=hidden;" vertex="1" parent="V_wv7amkp1t62BWTInBq-189">
          <mxGeometry width="30" height="30" as="geometry" />
        </mxCell>
        <mxCell id="V_wv7amkp1t62BWTInBq-191" value="이름" style="shape=partialRectangle;connectable=0;fillColor=none;top=0;left=0;bottom=0;right=0;align=left;spacingLeft=6;overflow=hidden;" vertex="1" parent="V_wv7amkp1t62BWTInBq-189">
          <mxGeometry x="30" width="150" height="30" as="geometry" />
        </mxCell>
        <mxCell id="V_wv7amkp1t62BWTInBq-192" value="" style="shape=partialRectangle;collapsible=0;dropTarget=0;pointerEvents=0;fillColor=none;top=0;left=0;bottom=0;right=0;points=[[0,0.5],[1,0.5]];portConstraint=eastwest;" vertex="1" parent="V_wv7amkp1t62BWTInBq-182">
          <mxGeometry y="120" width="180" height="30" as="geometry" />
        </mxCell>
        <mxCell id="V_wv7amkp1t62BWTInBq-193" value="" style="shape=partialRectangle;connectable=0;fillColor=none;top=0;left=0;bottom=0;right=0;editable=1;overflow=hidden;" vertex="1" parent="V_wv7amkp1t62BWTInBq-192">
          <mxGeometry width="30" height="30" as="geometry" />
        </mxCell>
        <mxCell id="V_wv7amkp1t62BWTInBq-194" value="전화번호" style="shape=partialRectangle;connectable=0;fillColor=none;top=0;left=0;bottom=0;right=0;align=left;spacingLeft=6;overflow=hidden;" vertex="1" parent="V_wv7amkp1t62BWTInBq-192">
          <mxGeometry x="30" width="150" height="30" as="geometry" />
        </mxCell>
        <mxCell id="V_wv7amkp1t62BWTInBq-201" value="정규직 교사" style="shape=table;startSize=30;container=1;collapsible=1;childLayout=tableLayout;fixedRows=1;rowLines=0;fontStyle=1;align=center;resizeLast=1;" vertex="1" parent="1">
          <mxGeometry x="1090" y="1030" width="180" height="100" as="geometry" />
        </mxCell>
        <mxCell id="V_wv7amkp1t62BWTInBq-202" value="" style="shape=partialRectangle;collapsible=0;dropTarget=0;pointerEvents=0;fillColor=none;top=0;left=0;bottom=1;right=0;points=[[0,0.5],[1,0.5]];portConstraint=eastwest;" vertex="1" parent="V_wv7amkp1t62BWTInBq-201">
          <mxGeometry y="30" width="180" height="30" as="geometry" />
        </mxCell>
        <mxCell id="V_wv7amkp1t62BWTInBq-203" value="PK" style="shape=partialRectangle;connectable=0;fillColor=none;top=0;left=0;bottom=0;right=0;fontStyle=1;overflow=hidden;" vertex="1" parent="V_wv7amkp1t62BWTInBq-202">
          <mxGeometry width="30" height="30" as="geometry" />
        </mxCell>
        <mxCell id="V_wv7amkp1t62BWTInBq-204" value="교사번호(FK)" style="shape=partialRectangle;connectable=0;fillColor=none;top=0;left=0;bottom=0;right=0;align=left;spacingLeft=6;fontStyle=5;overflow=hidden;" vertex="1" parent="V_wv7amkp1t62BWTInBq-202">
          <mxGeometry x="30" width="150" height="30" as="geometry" />
        </mxCell>
        <mxCell id="V_wv7amkp1t62BWTInBq-205" value="" style="shape=partialRectangle;collapsible=0;dropTarget=0;pointerEvents=0;fillColor=none;top=0;left=0;bottom=0;right=0;points=[[0,0.5],[1,0.5]];portConstraint=eastwest;" vertex="1" parent="V_wv7amkp1t62BWTInBq-201">
          <mxGeometry y="60" width="180" height="30" as="geometry" />
        </mxCell>
        <mxCell id="V_wv7amkp1t62BWTInBq-206" value="" style="shape=partialRectangle;connectable=0;fillColor=none;top=0;left=0;bottom=0;right=0;editable=1;overflow=hidden;" vertex="1" parent="V_wv7amkp1t62BWTInBq-205">
          <mxGeometry width="30" height="30" as="geometry" />
        </mxCell>
        <mxCell id="V_wv7amkp1t62BWTInBq-207" value="정식교사자격증" style="shape=partialRectangle;connectable=0;fillColor=none;top=0;left=0;bottom=0;right=0;align=left;spacingLeft=6;overflow=hidden;" vertex="1" parent="V_wv7amkp1t62BWTInBq-205">
          <mxGeometry x="30" width="150" height="30" as="geometry" />
        </mxCell>
        <mxCell id="V_wv7amkp1t62BWTInBq-214" value="비정규직 교사" style="shape=table;startSize=30;container=1;collapsible=1;childLayout=tableLayout;fixedRows=1;rowLines=0;fontStyle=1;align=center;resizeLast=1;" vertex="1" parent="1">
          <mxGeometry x="700" y="1020" width="180" height="100" as="geometry" />
        </mxCell>
        <mxCell id="V_wv7amkp1t62BWTInBq-215" value="" style="shape=partialRectangle;collapsible=0;dropTarget=0;pointerEvents=0;fillColor=none;top=0;left=0;bottom=1;right=0;points=[[0,0.5],[1,0.5]];portConstraint=eastwest;" vertex="1" parent="V_wv7amkp1t62BWTInBq-214">
          <mxGeometry y="30" width="180" height="30" as="geometry" />
        </mxCell>
        <mxCell id="V_wv7amkp1t62BWTInBq-216" value="PK" style="shape=partialRectangle;connectable=0;fillColor=none;top=0;left=0;bottom=0;right=0;fontStyle=1;overflow=hidden;" vertex="1" parent="V_wv7amkp1t62BWTInBq-215">
          <mxGeometry width="30" height="30" as="geometry" />
        </mxCell>
        <mxCell id="V_wv7amkp1t62BWTInBq-217" value="교사번호(FK)" style="shape=partialRectangle;connectable=0;fillColor=none;top=0;left=0;bottom=0;right=0;align=left;spacingLeft=6;fontStyle=5;overflow=hidden;" vertex="1" parent="V_wv7amkp1t62BWTInBq-215">
          <mxGeometry x="30" width="150" height="30" as="geometry" />
        </mxCell>
        <mxCell id="V_wv7amkp1t62BWTInBq-218" value="" style="shape=partialRectangle;collapsible=0;dropTarget=0;pointerEvents=0;fillColor=none;top=0;left=0;bottom=0;right=0;points=[[0,0.5],[1,0.5]];portConstraint=eastwest;" vertex="1" parent="V_wv7amkp1t62BWTInBq-214">
          <mxGeometry y="60" width="180" height="30" as="geometry" />
        </mxCell>
        <mxCell id="V_wv7amkp1t62BWTInBq-219" value="" style="shape=partialRectangle;connectable=0;fillColor=none;top=0;left=0;bottom=0;right=0;editable=1;overflow=hidden;" vertex="1" parent="V_wv7amkp1t62BWTInBq-218">
          <mxGeometry width="30" height="30" as="geometry" />
        </mxCell>
        <mxCell id="V_wv7amkp1t62BWTInBq-220" value="계약기간" style="shape=partialRectangle;connectable=0;fillColor=none;top=0;left=0;bottom=0;right=0;align=left;spacingLeft=6;overflow=hidden;" vertex="1" parent="V_wv7amkp1t62BWTInBq-218">
          <mxGeometry x="30" width="150" height="30" as="geometry" />
        </mxCell>
        <mxCell id="V_wv7amkp1t62BWTInBq-227" value="" style="edgeStyle=entityRelationEdgeStyle;fontSize=12;html=1;endArrow=ERmandOne;startArrow=ERmandOne;exitX=1;exitY=0.5;exitDx=0;exitDy=0;" edge="1" parent="1" source="V_wv7amkp1t62BWTInBq-192" target="V_wv7amkp1t62BWTInBq-202">
          <mxGeometry width="100" height="100" relative="1" as="geometry">
            <mxPoint x="530" y="640" as="sourcePoint" />
            <mxPoint x="630" y="540" as="targetPoint" />
          </mxGeometry>
        </mxCell>
        <mxCell id="V_wv7amkp1t62BWTInBq-228" value="" style="edgeStyle=entityRelationEdgeStyle;fontSize=12;html=1;endArrow=ERmandOne;startArrow=ERmandOne;entryX=0;entryY=0.5;entryDx=0;entryDy=0;" edge="1" parent="1" source="V_wv7amkp1t62BWTInBq-214" target="V_wv7amkp1t62BWTInBq-183">
          <mxGeometry width="100" height="100" relative="1" as="geometry">
            <mxPoint x="1890" y="950" as="sourcePoint" />
            <mxPoint x="1980" y="785" as="targetPoint" />
          </mxGeometry>
        </mxCell>
        <mxCell id="V_wv7amkp1t62BWTInBq-250" value="" style="edgeStyle=entityRelationEdgeStyle;fontSize=12;html=1;endArrow=ERoneToMany;startArrow=ERoneToMany;exitX=1;exitY=0.5;exitDx=0;exitDy=0;" edge="1" parent="1" source="V_wv7amkp1t62BWTInBq-127" target="V_wv7amkp1t62BWTInBq-77">
          <mxGeometry width="100" height="100" relative="1" as="geometry">
            <mxPoint x="1710" y="470" as="sourcePoint" />
            <mxPoint x="1810" y="370" as="targetPoint" />
          </mxGeometry>
        </mxCell>
        <mxCell id="V_wv7amkp1t62BWTInBq-252" value="" style="edgeStyle=entityRelationEdgeStyle;fontSize=12;html=1;endArrow=ERoneToMany;startArrow=ERmandOne;exitX=1;exitY=0.5;exitDx=0;exitDy=0;" edge="1" parent="1" source="V_wv7amkp1t62BWTInBq-140" target="V_wv7amkp1t62BWTInBq-130">
          <mxGeometry width="100" height="100" relative="1" as="geometry">
            <mxPoint x="770" y="630" as="sourcePoint" />
            <mxPoint x="870" y="530" as="targetPoint" />
          </mxGeometry>
        </mxCell>
        <mxCell id="V_wv7amkp1t62BWTInBq-257" value="" style="edgeStyle=entityRelationEdgeStyle;fontSize=12;html=1;endArrow=ERoneToMany;startArrow=ERzeroToMany;exitX=1;exitY=0.5;exitDx=0;exitDy=0;" edge="1" parent="1" source="V_wv7amkp1t62BWTInBq-183" target="V_wv7amkp1t62BWTInBq-254">
          <mxGeometry width="100" height="100" relative="1" as="geometry">
            <mxPoint x="1370" y="620" as="sourcePoint" />
            <mxPoint x="1470" y="520" as="targetPoint" />
          </mxGeometry>
        </mxCell>
        <mxCell id="V_wv7amkp1t62BWTInBq-258" value="입학" style="shape=table;startSize=30;container=1;collapsible=1;childLayout=tableLayout;fixedRows=1;rowLines=0;fontStyle=1;align=center;resizeLast=1;" vertex="1" parent="1">
          <mxGeometry x="880" y="-220" width="180" height="190" as="geometry" />
        </mxCell>
        <mxCell id="V_wv7amkp1t62BWTInBq-271" style="shape=partialRectangle;collapsible=0;dropTarget=0;pointerEvents=0;fillColor=none;top=0;left=0;bottom=1;right=0;points=[[0,0.5],[1,0.5]];portConstraint=eastwest;" vertex="1" parent="V_wv7amkp1t62BWTInBq-258">
          <mxGeometry y="30" width="180" height="30" as="geometry" />
        </mxCell>
        <mxCell id="V_wv7amkp1t62BWTInBq-272" value="PK" style="shape=partialRectangle;connectable=0;fillColor=none;top=0;left=0;bottom=0;right=0;fontStyle=1;overflow=hidden;" vertex="1" parent="V_wv7amkp1t62BWTInBq-271">
          <mxGeometry width="30" height="30" as="geometry" />
        </mxCell>
        <mxCell id="V_wv7amkp1t62BWTInBq-273" value="학생번호(FK)" style="shape=partialRectangle;connectable=0;fillColor=none;top=0;left=0;bottom=0;right=0;align=left;spacingLeft=6;fontStyle=5;overflow=hidden;" vertex="1" parent="V_wv7amkp1t62BWTInBq-271">
          <mxGeometry x="30" width="150" height="30" as="geometry" />
        </mxCell>
        <mxCell id="V_wv7amkp1t62BWTInBq-274" style="shape=partialRectangle;collapsible=0;dropTarget=0;pointerEvents=0;fillColor=none;top=0;left=0;bottom=1;right=0;points=[[0,0.5],[1,0.5]];portConstraint=eastwest;" vertex="1" parent="V_wv7amkp1t62BWTInBq-258">
          <mxGeometry y="60" width="180" height="30" as="geometry" />
        </mxCell>
        <mxCell id="V_wv7amkp1t62BWTInBq-275" value="PK" style="shape=partialRectangle;connectable=0;fillColor=none;top=0;left=0;bottom=0;right=0;fontStyle=1;overflow=hidden;" vertex="1" parent="V_wv7amkp1t62BWTInBq-274">
          <mxGeometry width="30" height="30" as="geometry" />
        </mxCell>
        <mxCell id="V_wv7amkp1t62BWTInBq-276" value="교육장 번호(FK)" style="shape=partialRectangle;connectable=0;fillColor=none;top=0;left=0;bottom=0;right=0;align=left;spacingLeft=6;fontStyle=5;overflow=hidden;" vertex="1" parent="V_wv7amkp1t62BWTInBq-274">
          <mxGeometry x="30" width="150" height="30" as="geometry" />
        </mxCell>
        <mxCell id="V_wv7amkp1t62BWTInBq-259" value="" style="shape=partialRectangle;collapsible=0;dropTarget=0;pointerEvents=0;fillColor=none;top=0;left=0;bottom=1;right=0;points=[[0,0.5],[1,0.5]];portConstraint=eastwest;" vertex="1" parent="V_wv7amkp1t62BWTInBq-258">
          <mxGeometry y="90" width="180" height="30" as="geometry" />
        </mxCell>
        <mxCell id="V_wv7amkp1t62BWTInBq-260" value="PK" style="shape=partialRectangle;connectable=0;fillColor=none;top=0;left=0;bottom=0;right=0;fontStyle=1;overflow=hidden;" vertex="1" parent="V_wv7amkp1t62BWTInBq-259">
          <mxGeometry width="30" height="30" as="geometry" />
        </mxCell>
        <mxCell id="V_wv7amkp1t62BWTInBq-261" value="입학년도" style="shape=partialRectangle;connectable=0;fillColor=none;top=0;left=0;bottom=0;right=0;align=left;spacingLeft=6;fontStyle=5;overflow=hidden;" vertex="1" parent="V_wv7amkp1t62BWTInBq-259">
          <mxGeometry x="30" width="150" height="30" as="geometry" />
        </mxCell>
        <mxCell id="V_wv7amkp1t62BWTInBq-262" value="" style="shape=partialRectangle;collapsible=0;dropTarget=0;pointerEvents=0;fillColor=none;top=0;left=0;bottom=0;right=0;points=[[0,0.5],[1,0.5]];portConstraint=eastwest;" vertex="1" parent="V_wv7amkp1t62BWTInBq-258">
          <mxGeometry y="120" width="180" height="30" as="geometry" />
        </mxCell>
        <mxCell id="V_wv7amkp1t62BWTInBq-263" value="" style="shape=partialRectangle;connectable=0;fillColor=none;top=0;left=0;bottom=0;right=0;editable=1;overflow=hidden;" vertex="1" parent="V_wv7amkp1t62BWTInBq-262">
          <mxGeometry width="30" height="30" as="geometry" />
        </mxCell>
        <mxCell id="V_wv7amkp1t62BWTInBq-264" value="입학 분기" style="shape=partialRectangle;connectable=0;fillColor=none;top=0;left=0;bottom=0;right=0;align=left;spacingLeft=6;overflow=hidden;" vertex="1" parent="V_wv7amkp1t62BWTInBq-262">
          <mxGeometry x="30" width="150" height="30" as="geometry" />
        </mxCell>
        <mxCell id="V_wv7amkp1t62BWTInBq-265" value="" style="shape=partialRectangle;collapsible=0;dropTarget=0;pointerEvents=0;fillColor=none;top=0;left=0;bottom=0;right=0;points=[[0,0.5],[1,0.5]];portConstraint=eastwest;" vertex="1" parent="V_wv7amkp1t62BWTInBq-258">
          <mxGeometry y="150" width="180" height="30" as="geometry" />
        </mxCell>
        <mxCell id="V_wv7amkp1t62BWTInBq-266" value="" style="shape=partialRectangle;connectable=0;fillColor=none;top=0;left=0;bottom=0;right=0;editable=1;overflow=hidden;" vertex="1" parent="V_wv7amkp1t62BWTInBq-265">
          <mxGeometry width="30" height="30" as="geometry" />
        </mxCell>
        <mxCell id="V_wv7amkp1t62BWTInBq-267" value="재입학 여부" style="shape=partialRectangle;connectable=0;fillColor=none;top=0;left=0;bottom=0;right=0;align=left;spacingLeft=6;overflow=hidden;" vertex="1" parent="V_wv7amkp1t62BWTInBq-265">
          <mxGeometry x="30" width="150" height="30" as="geometry" />
        </mxCell>
        <mxCell id="V_wv7amkp1t62BWTInBq-277" value="졸업" style="shape=table;startSize=30;container=1;collapsible=1;childLayout=tableLayout;fixedRows=1;rowLines=0;fontStyle=1;align=center;resizeLast=1;" vertex="1" parent="1">
          <mxGeometry x="880" y="10" width="180" height="190" as="geometry" />
        </mxCell>
        <mxCell id="V_wv7amkp1t62BWTInBq-278" value="" style="shape=partialRectangle;collapsible=0;dropTarget=0;pointerEvents=0;fillColor=none;top=0;left=0;bottom=1;right=0;points=[[0,0.5],[1,0.5]];portConstraint=eastwest;" vertex="1" parent="V_wv7amkp1t62BWTInBq-277">
          <mxGeometry y="30" width="180" height="30" as="geometry" />
        </mxCell>
        <mxCell id="V_wv7amkp1t62BWTInBq-279" value="PK" style="shape=partialRectangle;connectable=0;fillColor=none;top=0;left=0;bottom=0;right=0;fontStyle=1;overflow=hidden;" vertex="1" parent="V_wv7amkp1t62BWTInBq-278">
          <mxGeometry width="30" height="30" as="geometry" />
        </mxCell>
        <mxCell id="V_wv7amkp1t62BWTInBq-280" value="학생번호(FK)" style="shape=partialRectangle;connectable=0;fillColor=none;top=0;left=0;bottom=0;right=0;align=left;spacingLeft=6;fontStyle=5;overflow=hidden;" vertex="1" parent="V_wv7amkp1t62BWTInBq-278">
          <mxGeometry x="30" width="150" height="30" as="geometry" />
        </mxCell>
        <mxCell id="V_wv7amkp1t62BWTInBq-293" style="shape=partialRectangle;collapsible=0;dropTarget=0;pointerEvents=0;fillColor=none;top=0;left=0;bottom=1;right=0;points=[[0,0.5],[1,0.5]];portConstraint=eastwest;" vertex="1" parent="V_wv7amkp1t62BWTInBq-277">
          <mxGeometry y="60" width="180" height="30" as="geometry" />
        </mxCell>
        <mxCell id="V_wv7amkp1t62BWTInBq-294" value="PK" style="shape=partialRectangle;connectable=0;fillColor=none;top=0;left=0;bottom=0;right=0;fontStyle=1;overflow=hidden;" vertex="1" parent="V_wv7amkp1t62BWTInBq-293">
          <mxGeometry width="30" height="30" as="geometry" />
        </mxCell>
        <mxCell id="V_wv7amkp1t62BWTInBq-295" value="교육장 번호(FK)" style="shape=partialRectangle;connectable=0;fillColor=none;top=0;left=0;bottom=0;right=0;align=left;spacingLeft=6;fontStyle=5;overflow=hidden;" vertex="1" parent="V_wv7amkp1t62BWTInBq-293">
          <mxGeometry x="30" width="150" height="30" as="geometry" />
        </mxCell>
        <mxCell id="V_wv7amkp1t62BWTInBq-290" style="shape=partialRectangle;collapsible=0;dropTarget=0;pointerEvents=0;fillColor=none;top=0;left=0;bottom=1;right=0;points=[[0,0.5],[1,0.5]];portConstraint=eastwest;" vertex="1" parent="V_wv7amkp1t62BWTInBq-277">
          <mxGeometry y="90" width="180" height="30" as="geometry" />
        </mxCell>
        <mxCell id="V_wv7amkp1t62BWTInBq-291" value="PK" style="shape=partialRectangle;connectable=0;fillColor=none;top=0;left=0;bottom=0;right=0;fontStyle=1;overflow=hidden;" vertex="1" parent="V_wv7amkp1t62BWTInBq-290">
          <mxGeometry width="30" height="30" as="geometry" />
        </mxCell>
        <mxCell id="V_wv7amkp1t62BWTInBq-292" value="졸업년도" style="shape=partialRectangle;connectable=0;fillColor=none;top=0;left=0;bottom=0;right=0;align=left;spacingLeft=6;fontStyle=5;overflow=hidden;" vertex="1" parent="V_wv7amkp1t62BWTInBq-290">
          <mxGeometry x="30" width="150" height="30" as="geometry" />
        </mxCell>
        <mxCell id="V_wv7amkp1t62BWTInBq-281" value="" style="shape=partialRectangle;collapsible=0;dropTarget=0;pointerEvents=0;fillColor=none;top=0;left=0;bottom=0;right=0;points=[[0,0.5],[1,0.5]];portConstraint=eastwest;" vertex="1" parent="V_wv7amkp1t62BWTInBq-277">
          <mxGeometry y="120" width="180" height="30" as="geometry" />
        </mxCell>
        <mxCell id="V_wv7amkp1t62BWTInBq-282" value="" style="shape=partialRectangle;connectable=0;fillColor=none;top=0;left=0;bottom=0;right=0;editable=1;overflow=hidden;" vertex="1" parent="V_wv7amkp1t62BWTInBq-281">
          <mxGeometry width="30" height="30" as="geometry" />
        </mxCell>
        <mxCell id="V_wv7amkp1t62BWTInBq-283" value="졸업분기" style="shape=partialRectangle;connectable=0;fillColor=none;top=0;left=0;bottom=0;right=0;align=left;spacingLeft=6;overflow=hidden;" vertex="1" parent="V_wv7amkp1t62BWTInBq-281">
          <mxGeometry x="30" width="150" height="30" as="geometry" />
        </mxCell>
        <mxCell id="V_wv7amkp1t62BWTInBq-284" value="" style="shape=partialRectangle;collapsible=0;dropTarget=0;pointerEvents=0;fillColor=none;top=0;left=0;bottom=0;right=0;points=[[0,0.5],[1,0.5]];portConstraint=eastwest;" vertex="1" parent="V_wv7amkp1t62BWTInBq-277">
          <mxGeometry y="150" width="180" height="30" as="geometry" />
        </mxCell>
        <mxCell id="V_wv7amkp1t62BWTInBq-285" value="" style="shape=partialRectangle;connectable=0;fillColor=none;top=0;left=0;bottom=0;right=0;editable=1;overflow=hidden;" vertex="1" parent="V_wv7amkp1t62BWTInBq-284">
          <mxGeometry width="30" height="30" as="geometry" />
        </mxCell>
        <mxCell id="V_wv7amkp1t62BWTInBq-286" value="재졸업 여부" style="shape=partialRectangle;connectable=0;fillColor=none;top=0;left=0;bottom=0;right=0;align=left;spacingLeft=6;overflow=hidden;" vertex="1" parent="V_wv7amkp1t62BWTInBq-284">
          <mxGeometry x="30" width="150" height="30" as="geometry" />
        </mxCell>
        <mxCell id="V_wv7amkp1t62BWTInBq-298" value="" style="edgeStyle=entityRelationEdgeStyle;fontSize=12;html=1;endArrow=ERoneToMany;startArrow=ERmandOne;exitX=0;exitY=0;exitDx=0;exitDy=0;" edge="1" parent="1" source="V_wv7amkp1t62BWTInBq-76" target="V_wv7amkp1t62BWTInBq-278">
          <mxGeometry width="100" height="100" relative="1" as="geometry">
            <mxPoint x="1250" y="-50" as="sourcePoint" />
            <mxPoint x="1150" y="50" as="targetPoint" />
          </mxGeometry>
        </mxCell>
        <mxCell id="V_wv7amkp1t62BWTInBq-301" value="" style="edgeStyle=entityRelationEdgeStyle;fontSize=12;html=1;endArrow=ERoneToMany;startArrow=ERmandOne;exitX=0.75;exitY=0;exitDx=0;exitDy=0;" edge="1" parent="1" source="V_wv7amkp1t62BWTInBq-62" target="V_wv7amkp1t62BWTInBq-274">
          <mxGeometry width="100" height="100" relative="1" as="geometry">
            <mxPoint x="730" y="120" as="sourcePoint" />
            <mxPoint x="830" y="20" as="targetPoint" />
          </mxGeometry>
        </mxCell>
        <mxCell id="V_wv7amkp1t62BWTInBq-302" value="" style="edgeStyle=entityRelationEdgeStyle;fontSize=12;html=1;endArrow=ERoneToMany;startArrow=ERmandOne;" edge="1" parent="1" source="V_wv7amkp1t62BWTInBq-63" target="V_wv7amkp1t62BWTInBq-293">
          <mxGeometry width="100" height="100" relative="1" as="geometry">
            <mxPoint x="750" y="250" as="sourcePoint" />
            <mxPoint x="850" y="150" as="targetPoint" />
          </mxGeometry>
        </mxCell>
        <mxCell id="V_wv7amkp1t62BWTInBq-300" value="" style="edgeStyle=entityRelationEdgeStyle;fontSize=12;html=1;endArrow=ERoneToMany;startArrow=ERmandOne;exitX=0.111;exitY=0.057;exitDx=0;exitDy=0;entryX=1;entryY=0.5;entryDx=0;entryDy=0;exitPerimeter=0;" edge="1" parent="1" source="V_wv7amkp1t62BWTInBq-77" target="V_wv7amkp1t62BWTInBq-271">
          <mxGeometry width="100" height="100" relative="1" as="geometry">
            <mxPoint x="1210" y="60" as="sourcePoint" />
            <mxPoint x="1310" y="-40" as="targetPoint" />
          </mxGeometry>
        </mxCell>
        <mxCell id="V_wv7amkp1t62BWTInBq-304" value="출석" style="shape=table;startSize=30;container=1;collapsible=1;childLayout=tableLayout;fixedRows=1;rowLines=0;fontStyle=1;align=center;resizeLast=1;" vertex="1" parent="1">
          <mxGeometry x="1550" y="510" width="180" height="220" as="geometry" />
        </mxCell>
        <mxCell id="V_wv7amkp1t62BWTInBq-305" value="" style="shape=partialRectangle;collapsible=0;dropTarget=0;pointerEvents=0;fillColor=none;top=0;left=0;bottom=1;right=0;points=[[0,0.5],[1,0.5]];portConstraint=eastwest;" vertex="1" parent="V_wv7amkp1t62BWTInBq-304">
          <mxGeometry y="30" width="180" height="30" as="geometry" />
        </mxCell>
        <mxCell id="V_wv7amkp1t62BWTInBq-306" value="PK" style="shape=partialRectangle;connectable=0;fillColor=none;top=0;left=0;bottom=0;right=0;fontStyle=1;overflow=hidden;" vertex="1" parent="V_wv7amkp1t62BWTInBq-305">
          <mxGeometry width="30" height="30" as="geometry" />
        </mxCell>
        <mxCell id="V_wv7amkp1t62BWTInBq-307" value="학생번호(FK)" style="shape=partialRectangle;connectable=0;fillColor=none;top=0;left=0;bottom=0;right=0;align=left;spacingLeft=6;fontStyle=5;overflow=hidden;" vertex="1" parent="V_wv7amkp1t62BWTInBq-305">
          <mxGeometry x="30" width="150" height="30" as="geometry" />
        </mxCell>
        <mxCell id="V_wv7amkp1t62BWTInBq-336" style="shape=partialRectangle;collapsible=0;dropTarget=0;pointerEvents=0;fillColor=none;top=0;left=0;bottom=1;right=0;points=[[0,0.5],[1,0.5]];portConstraint=eastwest;" vertex="1" parent="V_wv7amkp1t62BWTInBq-304">
          <mxGeometry y="60" width="180" height="30" as="geometry" />
        </mxCell>
        <mxCell id="V_wv7amkp1t62BWTInBq-337" value="PK" style="shape=partialRectangle;connectable=0;fillColor=none;top=0;left=0;bottom=0;right=0;fontStyle=1;overflow=hidden;" vertex="1" parent="V_wv7amkp1t62BWTInBq-336">
          <mxGeometry width="30" height="30" as="geometry" />
        </mxCell>
        <mxCell id="V_wv7amkp1t62BWTInBq-338" value="강의 번호(FK)" style="shape=partialRectangle;connectable=0;fillColor=none;top=0;left=0;bottom=0;right=0;align=left;spacingLeft=6;fontStyle=5;overflow=hidden;" vertex="1" parent="V_wv7amkp1t62BWTInBq-336">
          <mxGeometry x="30" width="150" height="30" as="geometry" />
        </mxCell>
        <mxCell id="V_wv7amkp1t62BWTInBq-339" style="shape=partialRectangle;collapsible=0;dropTarget=0;pointerEvents=0;fillColor=none;top=0;left=0;bottom=1;right=0;points=[[0,0.5],[1,0.5]];portConstraint=eastwest;" vertex="1" parent="V_wv7amkp1t62BWTInBq-304">
          <mxGeometry y="90" width="180" height="30" as="geometry" />
        </mxCell>
        <mxCell id="V_wv7amkp1t62BWTInBq-340" value="PK" style="shape=partialRectangle;connectable=0;fillColor=none;top=0;left=0;bottom=0;right=0;fontStyle=1;overflow=hidden;" vertex="1" parent="V_wv7amkp1t62BWTInBq-339">
          <mxGeometry width="30" height="30" as="geometry" />
        </mxCell>
        <mxCell id="V_wv7amkp1t62BWTInBq-341" value="교육장 번호(FK)" style="shape=partialRectangle;connectable=0;fillColor=none;top=0;left=0;bottom=0;right=0;align=left;spacingLeft=6;fontStyle=5;overflow=hidden;" vertex="1" parent="V_wv7amkp1t62BWTInBq-339">
          <mxGeometry x="30" width="150" height="30" as="geometry" />
        </mxCell>
        <mxCell id="V_wv7amkp1t62BWTInBq-333" style="shape=partialRectangle;collapsible=0;dropTarget=0;pointerEvents=0;fillColor=none;top=0;left=0;bottom=1;right=0;points=[[0,0.5],[1,0.5]];portConstraint=eastwest;" vertex="1" parent="V_wv7amkp1t62BWTInBq-304">
          <mxGeometry y="120" width="180" height="30" as="geometry" />
        </mxCell>
        <mxCell id="V_wv7amkp1t62BWTInBq-334" value="PK" style="shape=partialRectangle;connectable=0;fillColor=none;top=0;left=0;bottom=0;right=0;fontStyle=1;overflow=hidden;" vertex="1" parent="V_wv7amkp1t62BWTInBq-333">
          <mxGeometry width="30" height="30" as="geometry" />
        </mxCell>
        <mxCell id="V_wv7amkp1t62BWTInBq-335" value="날짜" style="shape=partialRectangle;connectable=0;fillColor=none;top=0;left=0;bottom=0;right=0;align=left;spacingLeft=6;fontStyle=5;overflow=hidden;" vertex="1" parent="V_wv7amkp1t62BWTInBq-333">
          <mxGeometry x="30" width="150" height="30" as="geometry" />
        </mxCell>
        <mxCell id="V_wv7amkp1t62BWTInBq-308" value="" style="shape=partialRectangle;collapsible=0;dropTarget=0;pointerEvents=0;fillColor=none;top=0;left=0;bottom=0;right=0;points=[[0,0.5],[1,0.5]];portConstraint=eastwest;" vertex="1" parent="V_wv7amkp1t62BWTInBq-304">
          <mxGeometry y="150" width="180" height="30" as="geometry" />
        </mxCell>
        <mxCell id="V_wv7amkp1t62BWTInBq-309" value="" style="shape=partialRectangle;connectable=0;fillColor=none;top=0;left=0;bottom=0;right=0;editable=1;overflow=hidden;" vertex="1" parent="V_wv7amkp1t62BWTInBq-308">
          <mxGeometry width="30" height="30" as="geometry" />
        </mxCell>
        <mxCell id="V_wv7amkp1t62BWTInBq-310" value="출석여부" style="shape=partialRectangle;connectable=0;fillColor=none;top=0;left=0;bottom=0;right=0;align=left;spacingLeft=6;overflow=hidden;" vertex="1" parent="V_wv7amkp1t62BWTInBq-308">
          <mxGeometry x="30" width="150" height="30" as="geometry" />
        </mxCell>
        <mxCell id="V_wv7amkp1t62BWTInBq-311" value="" style="shape=partialRectangle;collapsible=0;dropTarget=0;pointerEvents=0;fillColor=none;top=0;left=0;bottom=0;right=0;points=[[0,0.5],[1,0.5]];portConstraint=eastwest;" vertex="1" parent="V_wv7amkp1t62BWTInBq-304">
          <mxGeometry y="180" width="180" height="30" as="geometry" />
        </mxCell>
        <mxCell id="V_wv7amkp1t62BWTInBq-312" value="" style="shape=partialRectangle;connectable=0;fillColor=none;top=0;left=0;bottom=0;right=0;editable=1;overflow=hidden;" vertex="1" parent="V_wv7amkp1t62BWTInBq-311">
          <mxGeometry width="30" height="30" as="geometry" />
        </mxCell>
        <mxCell id="V_wv7amkp1t62BWTInBq-313" value="지각여부" style="shape=partialRectangle;connectable=0;fillColor=none;top=0;left=0;bottom=0;right=0;align=left;spacingLeft=6;overflow=hidden;" vertex="1" parent="V_wv7amkp1t62BWTInBq-311">
          <mxGeometry x="30" width="150" height="30" as="geometry" />
        </mxCell>
        <mxCell id="V_wv7amkp1t62BWTInBq-342" value="" style="edgeStyle=entityRelationEdgeStyle;fontSize=12;html=1;endArrow=ERoneToMany;startArrow=ERmandOne;exitX=1;exitY=0.5;exitDx=0;exitDy=0;" edge="1" parent="1" source="V_wv7amkp1t62BWTInBq-172" target="V_wv7amkp1t62BWTInBq-336">
          <mxGeometry width="100" height="100" relative="1" as="geometry">
            <mxPoint x="1320" y="730" as="sourcePoint" />
            <mxPoint x="1420" y="630" as="targetPoint" />
          </mxGeometry>
        </mxCell>
        <mxCell id="V_wv7amkp1t62BWTInBq-343" value="" style="edgeStyle=entityRelationEdgeStyle;fontSize=12;html=1;endArrow=ERoneToMany;startArrow=ERmandOne;entryX=0;entryY=0.5;entryDx=0;entryDy=0;exitX=1;exitY=0.5;exitDx=0;exitDy=0;" edge="1" parent="1" source="V_wv7amkp1t62BWTInBq-77" target="V_wv7amkp1t62BWTInBq-305">
          <mxGeometry width="100" height="100" relative="1" as="geometry">
            <mxPoint x="1390" y="670" as="sourcePoint" />
            <mxPoint x="1490" y="570" as="targetPoint" />
          </mxGeometry>
        </mxCell>
        <mxCell id="V_wv7amkp1t62BWTInBq-345" value="전학" style="shape=table;startSize=30;container=1;collapsible=1;childLayout=tableLayout;fixedRows=1;rowLines=0;fontStyle=1;align=center;resizeLast=1;" vertex="1" parent="1">
          <mxGeometry x="360" y="-40" width="180" height="190" as="geometry" />
        </mxCell>
        <mxCell id="V_wv7amkp1t62BWTInBq-346" value="" style="shape=partialRectangle;collapsible=0;dropTarget=0;pointerEvents=0;fillColor=none;top=0;left=0;bottom=1;right=0;points=[[0,0.5],[1,0.5]];portConstraint=eastwest;" vertex="1" parent="V_wv7amkp1t62BWTInBq-345">
          <mxGeometry y="30" width="180" height="30" as="geometry" />
        </mxCell>
        <mxCell id="V_wv7amkp1t62BWTInBq-347" value="PK" style="shape=partialRectangle;connectable=0;fillColor=none;top=0;left=0;bottom=0;right=0;fontStyle=1;overflow=hidden;" vertex="1" parent="V_wv7amkp1t62BWTInBq-346">
          <mxGeometry width="30" height="30" as="geometry" />
        </mxCell>
        <mxCell id="V_wv7amkp1t62BWTInBq-348" value="전학 번호" style="shape=partialRectangle;connectable=0;fillColor=none;top=0;left=0;bottom=0;right=0;align=left;spacingLeft=6;fontStyle=5;overflow=hidden;" vertex="1" parent="V_wv7amkp1t62BWTInBq-346">
          <mxGeometry x="30" width="150" height="30" as="geometry" />
        </mxCell>
        <mxCell id="V_wv7amkp1t62BWTInBq-349" value="" style="shape=partialRectangle;collapsible=0;dropTarget=0;pointerEvents=0;fillColor=none;top=0;left=0;bottom=0;right=0;points=[[0,0.5],[1,0.5]];portConstraint=eastwest;" vertex="1" parent="V_wv7amkp1t62BWTInBq-345">
          <mxGeometry y="60" width="180" height="30" as="geometry" />
        </mxCell>
        <mxCell id="V_wv7amkp1t62BWTInBq-350" value="" style="shape=partialRectangle;connectable=0;fillColor=none;top=0;left=0;bottom=0;right=0;editable=1;overflow=hidden;" vertex="1" parent="V_wv7amkp1t62BWTInBq-349">
          <mxGeometry width="30" height="30" as="geometry" />
        </mxCell>
        <mxCell id="V_wv7amkp1t62BWTInBq-351" value="학생번호(FK)" style="shape=partialRectangle;connectable=0;fillColor=none;top=0;left=0;bottom=0;right=0;align=left;spacingLeft=6;overflow=hidden;" vertex="1" parent="V_wv7amkp1t62BWTInBq-349">
          <mxGeometry x="30" width="150" height="30" as="geometry" />
        </mxCell>
        <mxCell id="V_wv7amkp1t62BWTInBq-352" value="" style="shape=partialRectangle;collapsible=0;dropTarget=0;pointerEvents=0;fillColor=none;top=0;left=0;bottom=0;right=0;points=[[0,0.5],[1,0.5]];portConstraint=eastwest;" vertex="1" parent="V_wv7amkp1t62BWTInBq-345">
          <mxGeometry y="90" width="180" height="30" as="geometry" />
        </mxCell>
        <mxCell id="V_wv7amkp1t62BWTInBq-353" value="" style="shape=partialRectangle;connectable=0;fillColor=none;top=0;left=0;bottom=0;right=0;editable=1;overflow=hidden;" vertex="1" parent="V_wv7amkp1t62BWTInBq-352">
          <mxGeometry width="30" height="30" as="geometry" />
        </mxCell>
        <mxCell id="V_wv7amkp1t62BWTInBq-354" value="전 교육장 번호(FK)" style="shape=partialRectangle;connectable=0;fillColor=none;top=0;left=0;bottom=0;right=0;align=left;spacingLeft=6;overflow=hidden;" vertex="1" parent="V_wv7amkp1t62BWTInBq-352">
          <mxGeometry x="30" width="150" height="30" as="geometry" />
        </mxCell>
        <mxCell id="V_wv7amkp1t62BWTInBq-355" value="" style="shape=partialRectangle;collapsible=0;dropTarget=0;pointerEvents=0;fillColor=none;top=0;left=0;bottom=0;right=0;points=[[0,0.5],[1,0.5]];portConstraint=eastwest;" vertex="1" parent="V_wv7amkp1t62BWTInBq-345">
          <mxGeometry y="120" width="180" height="30" as="geometry" />
        </mxCell>
        <mxCell id="V_wv7amkp1t62BWTInBq-356" value="" style="shape=partialRectangle;connectable=0;fillColor=none;top=0;left=0;bottom=0;right=0;editable=1;overflow=hidden;" vertex="1" parent="V_wv7amkp1t62BWTInBq-355">
          <mxGeometry width="30" height="30" as="geometry" />
        </mxCell>
        <mxCell id="V_wv7amkp1t62BWTInBq-357" value="현 교육장 번호(FK)" style="shape=partialRectangle;connectable=0;fillColor=none;top=0;left=0;bottom=0;right=0;align=left;spacingLeft=6;overflow=hidden;" vertex="1" parent="V_wv7amkp1t62BWTInBq-355">
          <mxGeometry x="30" width="150" height="30" as="geometry" />
        </mxCell>
        <mxCell id="V_wv7amkp1t62BWTInBq-361" style="shape=partialRectangle;collapsible=0;dropTarget=0;pointerEvents=0;fillColor=none;top=0;left=0;bottom=0;right=0;points=[[0,0.5],[1,0.5]];portConstraint=eastwest;" vertex="1" parent="V_wv7amkp1t62BWTInBq-345">
          <mxGeometry y="150" width="180" height="30" as="geometry" />
        </mxCell>
        <mxCell id="V_wv7amkp1t62BWTInBq-362" style="shape=partialRectangle;connectable=0;fillColor=none;top=0;left=0;bottom=0;right=0;editable=1;overflow=hidden;" vertex="1" parent="V_wv7amkp1t62BWTInBq-361">
          <mxGeometry width="30" height="30" as="geometry" />
        </mxCell>
        <mxCell id="V_wv7amkp1t62BWTInBq-363" value="날짜" style="shape=partialRectangle;connectable=0;fillColor=none;top=0;left=0;bottom=0;right=0;align=left;spacingLeft=6;overflow=hidden;" vertex="1" parent="V_wv7amkp1t62BWTInBq-361">
          <mxGeometry x="30" width="150" height="30" as="geometry" />
        </mxCell>
        <mxCell id="V_wv7amkp1t62BWTInBq-364" value="" style="edgeStyle=orthogonalEdgeStyle;fontSize=12;html=1;endArrow=ERoneToMany;startArrow=ERmandOne;entryX=1;entryY=0.5;entryDx=0;entryDy=0;exitX=0;exitY=0.5;exitDx=0;exitDy=0;" edge="1" parent="1" source="V_wv7amkp1t62BWTInBq-63" target="V_wv7amkp1t62BWTInBq-352">
          <mxGeometry width="100" height="100" relative="1" as="geometry">
            <mxPoint x="670" y="-220" as="sourcePoint" />
            <mxPoint x="570" y="-120" as="targetPoint" />
          </mxGeometry>
        </mxCell>
        <mxCell id="V_wv7amkp1t62BWTInBq-365" value="" style="edgeStyle=orthogonalEdgeStyle;fontSize=12;html=1;endArrow=ERoneToMany;startArrow=ERmandOne;entryX=1;entryY=0.5;entryDx=0;entryDy=0;exitX=0.5;exitY=0;exitDx=0;exitDy=0;" edge="1" parent="1" source="V_wv7amkp1t62BWTInBq-76" target="V_wv7amkp1t62BWTInBq-349">
          <mxGeometry width="100" height="100" relative="1" as="geometry">
            <mxPoint x="740" y="-330" as="sourcePoint" />
            <mxPoint x="620" y="10" as="targetPoint" />
          </mxGeometry>
        </mxCell>
        <mxCell id="V_wv7amkp1t62BWTInBq-367" value="" style="edgeStyle=orthogonalEdgeStyle;fontSize=12;html=1;endArrow=ERoneToMany;startArrow=ERmandOne;entryX=1.002;entryY=0.152;entryDx=0;entryDy=0;entryPerimeter=0;" edge="1" parent="1" source="V_wv7amkp1t62BWTInBq-66" target="V_wv7amkp1t62BWTInBq-355">
          <mxGeometry width="100" height="100" relative="1" as="geometry">
            <mxPoint x="440" y="290" as="sourcePoint" />
            <mxPoint x="620" y="30" as="targetPoint" />
          </mxGeometry>
        </mxCell>
      </root>
    </mxGraphModel>
  </diagram>
</mxfile>
